<mxfile host="app.diagrams.net" modified="2023-01-06T03:27:18.933Z" agent="5.0 (Windows NT 10.0; Win64; x64) AppleWebKit/537.36 (KHTML, like Gecko) Chrome/108.0.0.0 Safari/537.36" version="20.8.1" etag="fQG6D-Ce2vHOor9Kgx9L" type="github">
  <diagram id="xr3nwTtCQTlSAe7Sdpwh" name="第 1 页">
    <mxGraphModel dx="1646" dy="437" grid="1" gridSize="10" guides="1" tooltips="1" connect="1" arrows="1" fold="1" page="1" pageScale="1" pageWidth="827" pageHeight="1169" math="0" shadow="0">
      <root>
        <mxCell id="0" />
        <mxCell id="1" parent="0" />
        <mxCell id="aD3VII3M_sc_CWhD76BV-14" value="" style="rounded=0;whiteSpace=wrap;html=1;fillColor=#fff2cc;strokeColor=#d6b656;" vertex="1" parent="1">
          <mxGeometry x="530" y="90" width="450" height="430" as="geometry" />
        </mxCell>
        <mxCell id="aD3VII3M_sc_CWhD76BV-13" value="" style="rounded=0;whiteSpace=wrap;html=1;fillColor=#d5e8d4;strokeColor=#82b366;" vertex="1" parent="1">
          <mxGeometry x="80" y="90" width="450" height="430" as="geometry" />
        </mxCell>
        <mxCell id="aD3VII3M_sc_CWhD76BV-15" style="edgeStyle=orthogonalEdgeStyle;rounded=0;orthogonalLoop=1;jettySize=auto;html=1;exitX=1;exitY=0.5;exitDx=0;exitDy=0;" edge="1" parent="1" source="aD3VII3M_sc_CWhD76BV-8" target="aD3VII3M_sc_CWhD76BV-9">
          <mxGeometry relative="1" as="geometry" />
        </mxCell>
        <mxCell id="aD3VII3M_sc_CWhD76BV-8" value="S13-到客年度回接" style="rounded=0;whiteSpace=wrap;html=1;" vertex="1" parent="1">
          <mxGeometry x="150" y="270" width="120" height="60" as="geometry" />
        </mxCell>
        <mxCell id="aD3VII3M_sc_CWhD76BV-16" style="edgeStyle=orthogonalEdgeStyle;rounded=0;orthogonalLoop=1;jettySize=auto;html=1;exitX=1;exitY=0.5;exitDx=0;exitDy=0;entryX=0;entryY=0.5;entryDx=0;entryDy=0;" edge="1" parent="1" source="aD3VII3M_sc_CWhD76BV-9" target="aD3VII3M_sc_CWhD76BV-10">
          <mxGeometry relative="1" as="geometry" />
        </mxCell>
        <mxCell id="aD3VII3M_sc_CWhD76BV-9" value="S14-到客月度回接" style="rounded=0;whiteSpace=wrap;html=1;" vertex="1" parent="1">
          <mxGeometry x="380" y="270" width="120" height="60" as="geometry" />
        </mxCell>
        <mxCell id="aD3VII3M_sc_CWhD76BV-17" style="edgeStyle=orthogonalEdgeStyle;rounded=0;orthogonalLoop=1;jettySize=auto;html=1;exitX=1;exitY=0.5;exitDx=0;exitDy=0;entryX=0;entryY=0.5;entryDx=0;entryDy=0;" edge="1" parent="1" source="aD3VII3M_sc_CWhD76BV-10" target="aD3VII3M_sc_CWhD76BV-11">
          <mxGeometry relative="1" as="geometry" />
        </mxCell>
        <mxCell id="aD3VII3M_sc_CWhD76BV-10" value="S15-多标签组合搭建&lt;br&gt;上线：只有默认标签组合" style="rounded=0;whiteSpace=wrap;html=1;fillColor=#f8cecc;strokeColor=#b85450;" vertex="1" parent="1">
          <mxGeometry x="600" y="270" width="120" height="60" as="geometry" />
        </mxCell>
        <mxCell id="aD3VII3M_sc_CWhD76BV-11" value="S16-批量标签组合调整" style="rounded=0;whiteSpace=wrap;html=1;" vertex="1" parent="1">
          <mxGeometry x="827" y="270" width="120" height="60" as="geometry" />
        </mxCell>
        <mxCell id="aD3VII3M_sc_CWhD76BV-18" value="只有一个范围，1个生效版本N个历史版本&lt;br&gt;只有一份有效的SPU投资费率&lt;br&gt;&lt;div style=&quot;&quot;&gt;&lt;span style=&quot;background-color: initial;&quot;&gt;.......&lt;/span&gt;&lt;/div&gt;" style="rounded=0;whiteSpace=wrap;html=1;align=left;" vertex="1" parent="1">
          <mxGeometry x="160" y="120" width="280" height="100" as="geometry" />
        </mxCell>
        <mxCell id="aD3VII3M_sc_CWhD76BV-19" value="只有多个个范围，1个生效版本N个历史版本&lt;br style=&quot;border-color: var(--border-color);&quot;&gt;只有多份有效的SPU投资费率&lt;br&gt;若干些关于多标签组合的漏洞还没有堵" style="rounded=0;whiteSpace=wrap;html=1;align=left;" vertex="1" parent="1">
          <mxGeometry x="600" y="120" width="280" height="100" as="geometry" />
        </mxCell>
        <mxCell id="aD3VII3M_sc_CWhD76BV-20" value="S17" style="rounded=0;whiteSpace=wrap;html=1;" vertex="1" parent="1">
          <mxGeometry x="160" y="360" width="760" height="60" as="geometry" />
        </mxCell>
        <mxCell id="aD3VII3M_sc_CWhD76BV-21" value="S18" style="rounded=0;whiteSpace=wrap;html=1;" vertex="1" parent="1">
          <mxGeometry x="160" y="430" width="760" height="60" as="geometry" />
        </mxCell>
        <mxCell id="aD3VII3M_sc_CWhD76BV-39" style="edgeStyle=orthogonalEdgeStyle;curved=1;rounded=0;orthogonalLoop=1;jettySize=auto;html=1;exitX=0.5;exitY=0;exitDx=0;exitDy=0;entryX=0;entryY=0.5;entryDx=0;entryDy=0;" edge="1" parent="1" source="aD3VII3M_sc_CWhD76BV-22" target="aD3VII3M_sc_CWhD76BV-38">
          <mxGeometry relative="1" as="geometry" />
        </mxCell>
        <mxCell id="aD3VII3M_sc_CWhD76BV-22" value="【目标-定版】SPU版本" style="rounded=0;whiteSpace=wrap;html=1;" vertex="1" parent="1">
          <mxGeometry x="160" y="750" width="120" height="60" as="geometry" />
        </mxCell>
        <mxCell id="aD3VII3M_sc_CWhD76BV-23" value="A=&amp;gt;生效版本" style="text;html=1;strokeColor=none;fillColor=none;align=center;verticalAlign=middle;whiteSpace=wrap;rounded=0;" vertex="1" parent="1">
          <mxGeometry x="395" y="830" width="90" height="30" as="geometry" />
        </mxCell>
        <mxCell id="aD3VII3M_sc_CWhD76BV-35" style="edgeStyle=orthogonalEdgeStyle;curved=1;rounded=0;orthogonalLoop=1;jettySize=auto;html=1;exitX=1;exitY=0.5;exitDx=0;exitDy=0;entryX=-0.064;entryY=0.502;entryDx=0;entryDy=0;entryPerimeter=0;" edge="1" parent="1" source="aD3VII3M_sc_CWhD76BV-24" target="aD3VII3M_sc_CWhD76BV-34">
          <mxGeometry relative="1" as="geometry" />
        </mxCell>
        <mxCell id="aD3VII3M_sc_CWhD76BV-24" value="B=&amp;gt;历史版本" style="text;html=1;strokeColor=none;fillColor=none;align=center;verticalAlign=middle;whiteSpace=wrap;rounded=0;" vertex="1" parent="1">
          <mxGeometry x="180" y="860" width="80" height="30" as="geometry" />
        </mxCell>
        <mxCell id="aD3VII3M_sc_CWhD76BV-25" value="【投资-测算】ITEM月度版本" style="rounded=0;whiteSpace=wrap;html=1;" vertex="1" parent="1">
          <mxGeometry x="580" y="750" width="120" height="60" as="geometry" />
        </mxCell>
        <mxCell id="aD3VII3M_sc_CWhD76BV-26" value="B=&amp;gt;&lt;font color=&quot;#ff3333&quot;&gt;S&lt;/font&gt;" style="text;html=1;strokeColor=none;fillColor=none;align=center;verticalAlign=middle;whiteSpace=wrap;rounded=0;" vertex="1" parent="1">
          <mxGeometry x="610" y="830" width="60" height="30" as="geometry" />
        </mxCell>
        <mxCell id="aD3VII3M_sc_CWhD76BV-30" style="edgeStyle=orthogonalEdgeStyle;rounded=0;orthogonalLoop=1;jettySize=auto;html=1;exitX=1;exitY=0.5;exitDx=0;exitDy=0;entryX=0;entryY=0.5;entryDx=0;entryDy=0;curved=1;" edge="1" parent="1" source="aD3VII3M_sc_CWhD76BV-28" target="aD3VII3M_sc_CWhD76BV-33">
          <mxGeometry relative="1" as="geometry" />
        </mxCell>
        <mxCell id="aD3VII3M_sc_CWhD76BV-28" value="N值变更" style="rounded=0;whiteSpace=wrap;html=1;" vertex="1" parent="1">
          <mxGeometry x="-40" y="750" width="120" height="60" as="geometry" />
        </mxCell>
        <mxCell id="aD3VII3M_sc_CWhD76BV-29" value="投资费率" style="rounded=0;whiteSpace=wrap;html=1;" vertex="1" parent="1">
          <mxGeometry x="370" y="750" width="120" height="60" as="geometry" />
        </mxCell>
        <mxCell id="aD3VII3M_sc_CWhD76BV-36" style="edgeStyle=orthogonalEdgeStyle;curved=1;rounded=0;orthogonalLoop=1;jettySize=auto;html=1;exitX=1;exitY=0.5;exitDx=0;exitDy=0;entryX=0;entryY=0.5;entryDx=0;entryDy=0;" edge="1" parent="1" source="aD3VII3M_sc_CWhD76BV-33" target="aD3VII3M_sc_CWhD76BV-23">
          <mxGeometry relative="1" as="geometry" />
        </mxCell>
        <mxCell id="aD3VII3M_sc_CWhD76BV-33" value="A=&amp;gt;生效版本" style="text;html=1;strokeColor=none;fillColor=none;align=center;verticalAlign=middle;whiteSpace=wrap;rounded=0;" vertex="1" parent="1">
          <mxGeometry x="180" y="830" width="90" height="30" as="geometry" />
        </mxCell>
        <mxCell id="aD3VII3M_sc_CWhD76BV-37" style="edgeStyle=orthogonalEdgeStyle;curved=1;rounded=0;orthogonalLoop=1;jettySize=auto;html=1;exitX=1;exitY=0.5;exitDx=0;exitDy=0;" edge="1" parent="1" source="aD3VII3M_sc_CWhD76BV-34" target="aD3VII3M_sc_CWhD76BV-26">
          <mxGeometry relative="1" as="geometry" />
        </mxCell>
        <mxCell id="aD3VII3M_sc_CWhD76BV-34" value="B=&amp;gt;历史版本" style="text;html=1;strokeColor=none;fillColor=none;align=center;verticalAlign=middle;whiteSpace=wrap;rounded=0;" vertex="1" parent="1">
          <mxGeometry x="405" y="860" width="80" height="30" as="geometry" />
        </mxCell>
        <mxCell id="aD3VII3M_sc_CWhD76BV-40" style="edgeStyle=orthogonalEdgeStyle;curved=1;rounded=0;orthogonalLoop=1;jettySize=auto;html=1;exitX=1;exitY=0.5;exitDx=0;exitDy=0;" edge="1" parent="1" source="aD3VII3M_sc_CWhD76BV-38">
          <mxGeometry relative="1" as="geometry">
            <mxPoint x="470" y="669.8571428571429" as="targetPoint" />
          </mxGeometry>
        </mxCell>
        <mxCell id="aD3VII3M_sc_CWhD76BV-38" value="【目标-测算】拆分获得ITEM" style="whiteSpace=wrap;html=1;rounded=0;" vertex="1" parent="1">
          <mxGeometry x="290" y="640" width="120" height="60" as="geometry" />
        </mxCell>
        <mxCell id="aD3VII3M_sc_CWhD76BV-42" style="edgeStyle=orthogonalEdgeStyle;curved=1;rounded=0;orthogonalLoop=1;jettySize=auto;html=1;exitX=1;exitY=0.5;exitDx=0;exitDy=0;entryX=0.5;entryY=0;entryDx=0;entryDy=0;" edge="1" parent="1" source="aD3VII3M_sc_CWhD76BV-41" target="aD3VII3M_sc_CWhD76BV-25">
          <mxGeometry relative="1" as="geometry" />
        </mxCell>
        <mxCell id="aD3VII3M_sc_CWhD76BV-41" value="【目标-定版】ITEM年" style="whiteSpace=wrap;html=1;rounded=0;" vertex="1" parent="1">
          <mxGeometry x="470" y="640" width="120" height="60" as="geometry" />
        </mxCell>
      </root>
    </mxGraphModel>
  </diagram>
</mxfile>
